<?xml version="1.0" encoding="UTF-8"?>
<!DOCTYPE svg PUBLIC "-//W3C//DTD SVG 1.1//EN" "http://www.w3.org/Graphics/SVG/1.1/DTD/svg11.dtd">
<!-- Creator: CorelDRAW -->
<svg xmlns="http://www.w3.org/2000/svg" xml:space="preserve" width="5.81176in" height="3.11046in" version="1.1" style="shape-rendering:geometricPrecision; text-rendering:geometricPrecision; image-rendering:optimizeQuality; fill-rule:evenodd; clip-rule:evenodd"
viewBox="0 0 5811.76 3110.46"
 xmlns:xlink="http://www.w3.org/1999/xlink">
 <defs>
  <style type="text/css">
   <![CDATA[
    .fil3 {fill:url(#id6);fill-rule:nonzero}
    .fil1 {fill:url(#id7);fill-rule:nonzero}
    .fil2 {fill:url(#id8);fill-rule:nonzero}
    .fil0 {fill:url(#id9);fill-rule:nonzero}
   ]]>
  </style>
     <mask id="id0">
  <linearGradient id="id1" gradientUnits="userSpaceOnUse" x1="1456.91" y1="2342.07" x2="3290.86" y2="1050.65">
   <stop offset="0" style="stop-opacity:1; stop-color:white"/>
   <stop offset="1" style="stop-opacity:0; stop-color:white"/>
  </linearGradient>
      <rect style="fill:url(#id1)" x="1992.92" y="1458.22" width="579.97" height="742.58"/>
     </mask>
     <mask id="id2">
  <linearGradient id="id3" gradientUnits="userSpaceOnUse" x1="4440.76" y1="-447.18" x2="2689.37" y2="708.62">
   <stop offset="0" style="stop-opacity:1; stop-color:white"/>
   <stop offset="1" style="stop-opacity:0; stop-color:white"/>
  </linearGradient>
      <rect style="fill:url(#id3)" x="3353.95" width="538.41" height="704.65"/>
     </mask>
     <mask id="id4">
  <linearGradient id="id5" gradientUnits="userSpaceOnUse" x1="1545.37" y1="2312.59" x2="4517.42" y2="-523.84">
   <stop offset="0" style="stop-opacity:1; stop-color:white"/>
   <stop offset="1" style="stop-opacity:0; stop-color:white"/>
  </linearGradient>
      <rect style="fill:url(#id5)" x="2435.23" y="38.09" width="1127.42" height="2162.71"/>
     </mask>
  <linearGradient id="id6" gradientUnits="objectBoundingBox" x1="44.5126%" y1="186.277%" x2="45.5001%" y2="0%">
   <stop offset="0" style="stop-opacity:1; stop-color:#C93232"/>
   <stop offset="1" style="stop-opacity:1; stop-color:#F2D94D"/>
  </linearGradient>
  <linearGradient id="id7" gradientUnits="userSpaceOnUse" xlink:href="#id6" x1="3132.13" y1="690.36" x2="4060.42" y2="1.88">
  </linearGradient>
  <linearGradient id="id8" gradientUnits="userSpaceOnUse" xlink:href="#id6" x1="1743.22" y1="1707.31" x2="4142.07" y2="493.49">
  </linearGradient>
  <linearGradient id="id9" gradientUnits="userSpaceOnUse" xlink:href="#id6" x1="1761.8" y1="2196.06" x2="2746.09" y2="1449.87">
  </linearGradient>
 </defs>
 <g id="Layer_x0020_1">
  <metadata id="CorelCorpID_0Corel-Layer"/>
  <g id="_2659641906208">
   <g>
    <path class="fil0" style="mask:url(#id0)" d="M1992.92 1458.22l0 59.63 5.3 682.96 574.67 0c-479.69,-249.33 -579.97,-742.58 -579.97,-742.58z"/>
    <path class="fil1" style="mask:url(#id2)" d="M3889.66 2.71c-75.89,168.03 -530.28,0 -535.71,-2.71 503.19,279.15 538.41,704.65 538.41,704.65l0 -463.44 -2.7 -238.49z"/>
    <path class="fil2" style="mask:url(#id4)" d="M3562.65 2200.8l-37.94 -29.81 -669.41 -2132.9 -336.06 0 -84.02 306.26c396.67,1264.17 145.17,479.9 579.97,1829.35l-35.23 27.11 582.69 0z"/>
   </g>
   <path class="fil3" d="M148.87 2855.31l49.01 115.43 -98.03 0 49.02 -115.43zm0 -88.41l-148.87 336.69 43.52 0 40.77 -96.2 129.18 0 40.77 96.2 43.52 0 -148.87 -336.69z"/>
   <polygon id="1" class="fil3" points="468.2,2782.93 468.2,3103.59 633.1,3103.59 633.1,3066.94 507.13,3066.94 507.13,2782.93 "/>
   <polygon id="2" class="fil3" points="844.78,2947.84 979.91,2947.84 979.91,2911.2 844.78,2911.2 844.78,2819.58 989.07,2819.58 989.07,2782.93 805.84,2782.93 805.84,3103.59 989.07,3103.59 989.07,3066.94 844.78,3066.94 "/>
   <polygon id="3" class="fil3" points="1351.91,2782.93 1281.37,2899.28 1212.2,2782.93 1168.68,2782.93 1259.38,2935.47 1157.23,3103.59 1200.75,3103.59 1280.91,2971.66 1358.78,3103.59 1402.3,3103.59 1302.9,2935.47 1395.43,2782.93 "/>
   <path id="4" class="fil3" d="M1585.12 3000.06l-32.98 19.7c20.15,52.68 61.84,88.41 114.52,88.41 63.67,0 97.57,-37.11 97.57,-91.62 0,-58.17 -47.64,-82 -81.08,-94.36 -38.94,-14.66 -74.21,-28.4 -74.21,-63.21 0,-27.94 16.03,-43.52 52.68,-43.52 35.27,0 53.14,26.11 66.88,52.68l31.61 -21.07c-12.83,-32.52 -47.18,-68.71 -98.94,-68.71 -52.22,0 -92.99,33.9 -92.99,77.87 0,58.18 48.56,81.08 80.62,92.53 36.65,13.29 75.12,29.78 75.12,71 0,32.06 -18.32,51.76 -54.97,51.76 -39.85,0 -64.59,-27.48 -83.83,-71.46z"/>
   <polygon id="5" class="fil3" points="1953,2782.93 1953,3103.59 1991.93,3103.59 1991.93,2947.84 2168.29,2947.84 2168.29,3103.59 2207.23,3103.59 2207.23,2782.93 2168.29,2782.93 2168.29,2911.2 1991.93,2911.2 1991.93,2782.93 "/>
   <polygon id="6" class="fil3" points="2450.97,2947.84 2586.1,2947.84 2586.1,2911.2 2450.97,2911.2 2450.97,2819.58 2595.26,2819.58 2595.26,2782.93 2412.03,2782.93 2412.03,3103.59 2595.26,3103.59 2595.26,3066.94 2450.97,3066.94 "/>
   <path id="7" class="fil3" d="M2834.42 2819.58l48.1 0c41.22,0 70.08,20.16 70.08,59.55 0,39.39 -28.86,59.55 -70.08,59.55l-48.1 0 0 -119.1zm-38.94 -36.65l0 320.65 38.94 0 0 -128.26 48.1 0c61.84,0 109.02,-37.11 109.02,-96.2 0,-59.09 -47.18,-96.2 -109.02,-96.2l-87.04 0z"/>
   <polygon id="8" class="fil3" points="3178.94,2782.93 3178.94,3103.59 3217.87,3103.59 3217.87,2947.84 3394.23,2947.84 3394.23,3103.59 3433.17,3103.59 3433.17,2782.93 3394.23,2782.93 3394.23,2911.2 3217.87,2911.2 3217.87,2782.93 "/>
   <polygon id="9" class="fil3" points="3676.91,2947.84 3812.04,2947.84 3812.04,2911.2 3676.91,2911.2 3676.91,2819.58 3821.2,2819.58 3821.2,2782.93 3637.97,2782.93 3637.97,3103.59 3821.2,3103.59 3821.2,3066.94 3676.91,3066.94 "/>
   <path id="10" class="fil3" d="M4060.36 2819.58l48.1 0c41.22,0 70.08,20.16 70.08,59.55 0,39.39 -28.86,59.55 -70.08,59.55l-48.1 0 0 -119.1zm-38.94 -36.65l0 320.65 38.94 0 0 -128.26 40.31 0 87.95 128.26 48.1 0 -91.16 -133.3c42.6,-11.91 71.92,-44.43 71.92,-91.16 0,-59.09 -47.18,-96.2 -109.02,-96.2l-87.04 0z"/>
   <path id="11" class="fil3" d="M4443.81 2819.58l57.26 0c72.37,0 121.39,49.02 121.39,123.68 0,74.67 -49.02,123.68 -121.39,123.68l-57.26 0 0 -247.36zm-38.94 -36.65l0 320.65 96.2 0c93.44,0 160.33,-64.59 160.33,-160.33 0,-95.74 -66.88,-160.33 -160.33,-160.33l-96.2 0z"/>
   <path id="12" class="fil3" d="M4854.75 3085.26c0,13.74 11.45,25.19 25.2,25.19 13.74,0 25.19,-11.45 25.19,-25.19 0,-13.74 -11.45,-25.19 -25.19,-25.19 -13.74,0 -25.2,11.45 -25.2,25.19z"/>
   <polygon id="13" class="fil3" points="5374.71,2886.92 5398.53,3103.59 5437.47,3103.59 5398.53,2766.9 5270.27,2999.15 5142.01,2766.9 5103.07,3103.59 5142.01,3103.59 5165.83,2886.92 5270.27,3073.81 "/>
   <polygon id="14" class="fil3" points="5667.46,2947.84 5802.59,2947.84 5802.59,2911.2 5667.46,2911.2 5667.46,2819.58 5811.76,2819.58 5811.76,2782.93 5628.53,2782.93 5628.53,3103.59 5811.76,3103.59 5811.76,3066.94 5667.46,3066.94 "/>
  </g>
 </g>
</svg>

